<?xml version="1.0" encoding="UTF-8" standalone="no"?>
<!DOCTYPE svg PUBLIC "-//W3C//DTD SVG 1.1//EN" "http://www.w3.org/Graphics/SVG/1.1/DTD/svg11.dtd">
<svg width="100%" height="100%" viewBox="0 0 1040 223" version="1.1" xmlns="http://www.w3.org/2000/svg" xmlns:xlink="http://www.w3.org/1999/xlink" xml:space="preserve" xmlns:serif="http://www.serif.com/" style="fill-rule:evenodd;clip-rule:evenodd;stroke-linejoin:round;stroke-miterlimit:2;">
    <g>
        <g>
            <path d="M210.161,8.922L210.161,213.506L32.057,213.506C20.18,213.506 10.536,203.862 10.536,191.983L10.536,30.444C10.536,18.565 20.18,8.922 32.057,8.922L210.161,8.922Z" style="fill:rgb(204,202,203);"/>
            <path d="M1038.1,29.604L1038.1,193.773C1038.1,209.13 1025.63,221.598 1010.27,221.598L30.185,221.598C14.829,221.598 2.361,209.13 2.361,193.773L2.361,29.604C2.361,14.248 14.829,1.78 30.185,1.78L1010.27,1.78C1025.63,1.78 1038.1,14.248 1038.1,29.604ZM1023.1,29.604C1023.1,22.526 1017.35,16.78 1010.27,16.78L30.185,16.78C23.108,16.78 17.361,22.526 17.361,29.604L17.361,193.773C17.361,200.851 23.108,206.598 30.185,206.598L1010.27,206.598C1017.35,206.598 1023.1,200.851 1023.1,193.773L1023.1,29.604Z" style="fill:white;"/>
            <rect x="204.799" y="8.397" width="15" height="204.031" style="fill:white;"/>
            <path d="M188.427,68.121L188.427,155.428C188.427,178.047 170.064,196.41 147.445,196.41L70.981,196.41C48.363,196.41 29.999,178.047 29.999,155.428L29.999,68.121C29.999,45.503 48.363,27.139 70.981,27.139L147.445,27.139C170.064,27.139 188.427,45.503 188.427,68.121ZM182.927,68.121C182.927,48.538 167.028,32.639 147.445,32.639L70.981,32.639C51.398,32.639 35.499,48.538 35.499,68.121L35.499,155.428C35.499,175.011 51.398,190.91 70.981,190.91L147.445,190.91C167.028,190.91 182.927,175.011 182.927,155.428L182.927,68.121Z"/>
            <path d="M343.344,138.504C343.344,144.09 347.068,146.085 353.452,146.085C359.703,146.085 363.693,144.09 363.693,138.504L363.693,84.506C363.693,78.787 360.368,75.861 353.186,75.861L338.423,75.861C334.699,75.861 331.773,76.526 330.044,78.92L310.493,105.786L291.075,78.92C289.346,76.526 286.287,75.861 282.696,75.861L266.869,75.861C259.82,75.861 256.362,78.787 256.362,84.506L256.362,138.504C256.362,144.09 260.351,146.085 266.603,146.085C272.987,146.085 276.711,144.09 276.711,138.504L276.711,89.959L301.715,124.14C303.444,126.401 306.237,127.066 310.094,127.066C313.951,127.066 316.744,126.401 318.473,124.14L343.344,89.959L343.344,138.504Z" style="fill:white;fill-rule:nonzero;"/>
            <path d="M375.796,138.504C375.796,144.09 380.052,146.085 386.303,146.085C392.687,146.085 396.677,144.09 396.677,138.504L396.677,85.703C396.677,80.25 392.687,78.255 386.303,78.255C380.052,78.255 375.796,80.25 375.796,85.703L375.796,138.504ZM396.677,59.502C396.677,54.049 392.687,52.054 386.303,52.054C380.052,52.054 375.796,54.049 375.796,59.502L375.796,65.753C375.796,71.339 380.052,73.334 386.303,73.334C392.687,73.334 396.677,71.339 396.677,65.753L396.677,59.502Z" style="fill:white;fill-rule:nonzero;"/>
            <path d="M488.979,123.342C488.979,117.889 484.989,115.894 478.605,115.894C472.354,115.894 468.098,117.889 468.098,123.342L468.098,123.608C468.098,128.396 461.315,130.79 448.148,130.79C434.848,130.79 428.198,128.396 428.198,123.608L428.198,97.54C428.198,92.619 434.848,90.225 448.148,90.225C461.315,90.225 467.965,92.619 467.965,97.54L467.965,97.673C467.965,103.259 472.221,105.254 478.472,105.254C484.856,105.254 488.846,103.259 488.846,97.673L488.846,96.077C488.846,82.112 477.009,74.132 448.148,74.132C419.287,74.132 407.317,82.112 407.317,96.077L407.317,124.938C407.317,138.903 419.287,146.883 448.148,146.883C477.009,146.883 488.979,138.903 488.979,124.938L488.979,123.342Z" style="fill:white;fill-rule:nonzero;"/>
            <path d="M547.632,92.088C551.888,92.088 553.617,89.161 553.617,83.974C553.617,78.92 551.888,75.861 547.632,75.861L523.159,75.861C505.737,75.861 497.092,83.176 497.092,97.806L497.092,138.504C497.092,144.09 501.082,146.085 507.466,146.085C513.584,146.085 517.84,144.09 517.84,138.504L517.84,99.269C517.84,94.349 520.367,92.088 527.017,92.088L547.632,92.088Z" style="fill:white;fill-rule:nonzero;"/>
            <path d="M637.806,96.077C637.806,82.112 625.836,74.132 596.975,74.132C568.114,74.132 556.144,82.112 556.144,96.077L556.144,124.938C556.144,138.903 568.114,146.883 596.975,146.883C625.836,146.883 637.806,138.903 637.806,124.938L637.806,96.077ZM616.925,123.608C616.925,128.396 610.142,130.79 596.975,130.79C583.675,130.79 577.025,128.396 577.025,123.608L577.025,97.54C577.025,92.619 583.675,90.225 596.975,90.225C610.142,90.225 616.925,92.619 616.925,97.54L616.925,123.608Z" style="fill:white;fill-rule:nonzero;"/>
            <path d="M729.044,119.884C729.044,111.771 725.32,107.116 719.867,104.456C712.02,100.732 700.715,101.131 691.006,100.865C681.962,100.599 673.051,100.732 670.79,99.535C669.061,98.471 668.396,97.274 668.396,95.545C668.529,91.289 672.253,89.427 688.878,89.427C699.252,89.427 705.237,90.225 707.099,93.683C709.36,97.673 712.153,98.471 718.005,98.471C723.591,98.471 727.315,96.21 727.315,91.422C727.315,75.329 701.912,74.132 687.548,74.132C659.219,74.132 646.717,81.314 646.717,94.481L646.717,97.673C646.717,110.574 658.155,113.766 669.726,114.697C675.445,115.229 681.43,115.229 686.218,115.362C692.203,115.628 699.252,115.628 703.907,116.692C706.035,117.224 708.03,118.687 708.03,122.677C708.03,129.061 704.971,131.588 687.415,131.588C673.716,131.588 668.795,131.189 668.529,126.002C668.263,119.884 665.736,118.421 657.224,118.421C649.51,118.421 646.717,120.15 646.717,126.268C646.717,141.829 659.884,146.883 687.947,146.883C719.468,146.883 729.044,138.371 729.044,125.071L729.044,119.884Z" style="fill:white;fill-rule:nonzero;"/>
            <path d="M807.913,145.154C813.233,145.154 818.553,143.558 818.553,137.706L818.553,97.806C818.553,83.841 808.312,75.861 786.367,75.861L746.999,75.861C742.61,75.861 741.014,78.92 741.014,83.974C741.014,89.161 742.61,92.088 746.999,92.088L787.564,92.088C793.815,92.088 798.337,94.349 798.337,100.2L798.337,129.593L762.028,129.593C758.437,129.593 757.24,128.13 757.24,124.007L757.24,121.613C757.24,117.49 758.437,115.495 762.028,115.495L786.766,115.495C791.155,115.495 792.751,112.569 792.751,107.914C792.751,103.392 791.155,100.466 786.766,100.466L761.23,100.466C742.344,100.466 737.157,106.451 737.024,121.613L737.024,124.007C737.157,139.302 742.344,145.154 761.23,145.154L807.913,145.154Z" style="fill:white;fill-rule:nonzero;"/>
            <path d="M891.304,138.504C891.304,144.09 895.56,146.085 901.811,146.085C908.062,146.085 912.052,144.09 912.052,138.504L912.052,97.806C912.052,83.176 903.407,75.861 885.984,75.861L840.631,75.861C833.316,75.861 829.725,78.787 829.725,84.373L829.725,138.504C829.725,144.09 833.981,146.085 840.232,146.085C846.616,146.085 850.606,144.09 850.606,138.504L850.606,92.088L882.127,92.088C888.777,92.088 891.304,94.349 891.304,99.269L891.304,138.504Z" style="fill:white;fill-rule:nonzero;"/>
            <path d="M972.035,121.613C972.035,126.8 967.912,129.46 955.144,129.46C942.509,129.46 938.386,126.8 938.386,121.613L938.386,115.894C938.386,110.308 933.997,108.18 927.48,108.18C920.83,108.18 916.574,110.308 916.574,115.894L916.574,123.076C916.574,138.105 928.278,146.883 955.144,146.883C982.143,146.883 993.714,138.105 993.714,123.076L993.714,79.657C993.714,73.938 990.123,71.012 982.808,71.012L959.824,71.012C955.302,71.012 953.573,74.47 953.573,79.79C953.573,84.977 955.302,88.568 959.824,88.568L972.035,88.568L972.035,121.613Z" style="fill:white;fill-rule:nonzero;"/>
            <path d="M69.827,119.52C75.014,102.253 91.144,89.65 110.218,89.65C129.291,89.65 145.422,102.253 150.608,119.52L69.827,119.52Z" style="fill:white;"/>
            <path d="M151.13,118.869C151.931,122.089 152.357,125.456 152.357,128.92C152.357,152.002 133.475,170.741 110.218,170.741C86.961,170.741 68.079,152.002 68.079,128.92C68.079,125.456 68.504,122.089 69.306,118.869L151.13,118.869Z" style="fill:rgb(244,236,96);"/>
            <path d="M96.93,175.256C76.586,169.58 61.682,151.203 61.682,129.457C61.682,111.691 71.628,96.175 86.361,87.994C87.184,87.295 94.868,80.488 96.325,69.066C97.476,60.038 98.258,29.408 98.258,29.408L122.355,29.408C122.355,29.408 123.137,60.038 124.288,69.066C125.827,81.137 134.323,88.054 134.323,88.054L134.314,88.128C148.915,96.343 158.754,111.788 158.754,129.457C158.754,151.559 143.359,170.18 122.504,175.524L120.395,192.457L99.072,192.457L96.93,175.256ZM110.218,90.076C88.02,90.076 69.972,107.707 69.972,129.457C69.972,151.206 88.02,168.837 110.218,168.837C132.416,168.837 150.464,151.206 150.464,129.457C150.464,107.707 132.416,90.076 110.218,90.076Z"/>
            <path d="M48.309,79.882C51.437,69.389 61.166,61.729 72.67,61.729C84.174,61.729 93.903,69.389 97.031,79.882L48.309,79.882Z" style="fill:white;"/>
            <path d="M97.345,79.487C97.829,81.443 98.085,83.489 98.085,85.595C98.085,99.622 86.697,111.01 72.67,111.01C58.643,111.01 47.254,99.622 47.254,85.595C47.254,83.489 47.511,81.443 47.994,79.487L97.345,79.487Z" style="fill:rgb(177,51,49);"/>
            <path d="M64.655,113.754C52.385,110.305 43.396,99.137 43.396,85.921C43.396,75.124 49.395,65.694 58.281,60.723C58.777,60.298 63.412,56.161 64.29,49.219C64.985,43.733 65.15,29.718 65.15,29.718L80.296,29.718C80.296,29.718 80.462,43.733 81.156,49.219C82.084,56.556 87.209,60.759 87.209,60.759L87.203,60.804C96.01,65.797 101.944,75.183 101.944,85.921C101.944,99.353 92.658,110.67 80.08,113.917L78.808,124.208L65.947,124.208L64.655,113.754ZM72.67,61.988C59.281,61.988 48.396,72.703 48.396,85.921C48.396,99.139 59.281,109.854 72.67,109.854C86.058,109.854 96.944,99.139 96.944,85.921C96.944,72.703 86.058,61.988 72.67,61.988Z"/>
            <path d="M133.436,56.776C135.805,48.83 143.172,43.03 151.884,43.03C160.595,43.03 167.963,48.83 170.331,56.776L133.436,56.776Z" style="fill:white;"/>
            <path d="M170.57,56.477C170.936,57.959 171.13,59.508 171.13,61.102C171.13,71.725 162.506,80.348 151.884,80.348C141.262,80.348 132.638,71.725 132.638,61.102C132.638,59.508 132.832,57.959 133.198,56.477L170.57,56.477Z" style="fill:rgb(51,49,133);"/>
            <path d="M158.112,31.475C158.17,32.265 158.236,32.975 158.31,33.557C159.013,39.113 162.893,42.296 162.893,42.296L162.889,42.33C169.558,46.11 174.052,53.218 174.052,61.349C174.052,71.521 167.02,80.091 157.495,82.55L156.532,90.342L146.793,90.342L145.815,82.426C136.523,79.814 129.716,71.357 129.716,61.349C129.716,53.174 134.259,46.033 140.988,42.268C141.364,41.946 144.873,38.814 145.539,33.557C145.648,32.695 145.739,31.555 145.817,30.289C148.748,30.216 153.506,30.335 158.112,31.475ZM151.884,43.226C141.745,43.226 133.502,51.34 133.502,61.349C133.502,71.359 141.745,79.473 151.884,79.473C162.022,79.473 170.265,71.359 170.265,61.349C170.265,51.34 162.022,43.226 151.884,43.226Z"/>
        </g>
    </g>
</svg>
