<?xml version="1.0" encoding="UTF-8" standalone="no"?>
<!DOCTYPE svg PUBLIC "-//W3C//DTD SVG 1.1//EN" "http://www.w3.org/Graphics/SVG/1.1/DTD/svg11.dtd">
<svg width="100%" height="100%" viewBox="0 0 666 665" version="1.1" xmlns="http://www.w3.org/2000/svg" xmlns:xlink="http://www.w3.org/1999/xlink" xml:space="preserve" xmlns:serif="http://www.serif.com/" style="fill-rule:evenodd;clip-rule:evenodd;stroke-linejoin:round;stroke-miterlimit:2;">
    <g id="Artboard1" transform="matrix(1.02447,0,0,0.949978,-43.5423,-31.0598)">
        <rect x="42.502" y="32.695" width="649.387" height="699.976" style="fill:none;"/>
        <g>
            <g transform="matrix(0.943022,0,0,0.947777,50.9296,46.2235)">
                <path d="M666.725,168.921L666.725,544.956C666.725,637.422 596.761,712.493 510.586,712.493L159.114,712.493C72.939,712.493 2.975,637.422 2.975,544.956L2.975,168.921C2.975,76.455 72.939,1.384 159.114,1.384L510.586,1.384C596.761,1.384 666.725,76.455 666.725,168.921Z" style="fill:rgb(206,202,202);"/>
            </g>
            <g transform="matrix(4.06716,0,0,4.10438,-76.6433,-75.7946)">
                <path d="M188.427,68.121L188.427,155.428C188.427,178.047 170.064,196.41 147.445,196.41L70.981,196.41C48.363,196.41 29.999,178.047 29.999,155.428L29.999,68.121C29.999,45.503 48.363,27.139 70.981,27.139L147.445,27.139C170.064,27.139 188.427,45.503 188.427,68.121ZM182.927,68.121C182.927,48.538 167.028,32.639 147.445,32.639L70.981,32.639C51.398,32.639 35.499,48.538 35.499,68.121L35.499,155.428C35.499,175.011 51.398,190.91 70.981,190.91L147.445,190.91C167.028,190.91 182.927,175.011 182.927,155.428L182.927,68.121Z"/>
            </g>
            <g transform="matrix(4.06716,0,0,4.38606,-76.6433,-83.4392)">
                <path d="M69.827,119.52C75.014,102.253 91.144,89.65 110.218,89.65C129.291,89.65 145.422,102.253 150.608,119.52L69.827,119.52Z" style="fill:white;"/>
            </g>
            <g transform="matrix(4.06716,0,0,4.38606,-76.6433,-83.4392)">
                <path d="M151.13,118.869C151.931,122.089 152.357,125.456 152.357,128.92C152.357,152.002 133.475,170.741 110.218,170.741C86.961,170.741 68.079,152.002 68.079,128.92C68.079,125.456 68.504,122.089 69.306,118.869L151.13,118.869Z" style="fill:rgb(244,236,96);"/>
            </g>
            <g transform="matrix(4.06716,0,0,4.38606,-76.6433,-83.4392)">
                <path d="M96.93,175.256C76.586,169.58 61.682,151.203 61.682,129.457C61.682,111.691 71.628,96.175 86.361,87.994C87.184,87.295 94.868,80.488 96.325,69.066C97.476,60.038 98.258,29.408 98.258,29.408L122.355,29.408C122.355,29.408 123.137,60.038 124.288,69.066C125.827,81.137 134.323,88.054 134.323,88.054L134.314,88.128C148.915,96.343 158.754,111.788 158.754,129.457C158.754,151.559 143.359,170.18 122.504,175.524L120.395,182.88L99.072,182.88L96.93,175.256ZM110.218,90.076C88.02,90.076 69.972,107.707 69.972,129.457C69.972,151.206 88.02,168.837 110.218,168.837C132.416,168.837 150.464,151.206 150.464,129.457C150.464,107.707 132.416,90.076 110.218,90.076Z"/>
            </g>
            <g transform="matrix(4.06716,0,0,4.38606,-76.6433,-83.4392)">
                <path d="M48.309,79.882C51.437,69.389 61.166,61.729 72.67,61.729C84.174,61.729 93.903,69.389 97.031,79.882L48.309,79.882Z" style="fill:white;"/>
            </g>
            <g transform="matrix(4.06716,0,0,4.38606,-76.6433,-83.4392)">
                <path d="M97.345,79.487C97.829,81.443 98.085,83.489 98.085,85.595C98.085,99.622 86.697,111.01 72.67,111.01C58.643,111.01 47.254,99.622 47.254,85.595C47.254,83.489 47.511,81.443 47.994,79.487L97.345,79.487Z" style="fill:rgb(177,51,49);"/>
            </g>
            <g transform="matrix(4.06716,0,0,4.38606,-76.6433,-83.4392)">
                <path d="M64.655,113.754C52.385,110.305 43.396,99.137 43.396,85.921C43.396,75.124 49.395,65.694 58.281,60.723C58.777,60.298 63.412,56.161 64.29,49.219C64.985,43.733 65.15,29.718 65.15,29.718L80.296,29.718C80.296,29.718 80.462,43.733 81.156,49.219C82.084,56.556 87.209,60.759 87.209,60.759L87.203,60.804C96.01,65.797 101.944,75.183 101.944,85.921C101.944,99.353 92.658,110.67 80.08,113.917L78.808,124.208L65.947,124.208L64.655,113.754ZM72.67,61.988C59.281,61.988 48.396,72.703 48.396,85.921C48.396,99.139 59.281,109.854 72.67,109.854C86.058,109.854 96.944,99.139 96.944,85.921C96.944,72.703 86.058,61.988 72.67,61.988Z"/>
            </g>
            <g transform="matrix(4.06716,0,0,4.38606,-76.6433,-83.4392)">
                <path d="M133.436,56.776C135.805,48.83 143.172,43.03 151.884,43.03C160.595,43.03 167.963,48.83 170.331,56.776L133.436,56.776Z" style="fill:white;"/>
            </g>
            <g transform="matrix(4.06716,0,0,4.38606,-76.6433,-83.4392)">
                <path d="M170.57,56.477C170.936,57.959 171.13,59.508 171.13,61.102C171.13,71.725 162.506,80.348 151.884,80.348C141.262,80.348 132.638,71.725 132.638,61.102C132.638,59.508 132.832,57.959 133.198,56.477L170.57,56.477Z" style="fill:rgb(51,49,133);"/>
            </g>
            <g transform="matrix(4.06716,0,0,4.38606,-76.6433,-83.4392)">
                <path d="M158.112,31.475C158.17,32.265 158.236,32.975 158.31,33.557C159.013,39.113 162.893,42.296 162.893,42.296L162.889,42.33C169.558,46.11 174.052,53.218 174.052,61.349C174.052,71.521 167.02,80.091 157.495,82.55L156.532,90.342L146.793,90.342L145.815,82.426C136.523,79.814 129.716,71.357 129.716,61.349C129.716,53.174 134.259,46.033 140.988,42.268C141.364,41.946 144.873,38.814 145.539,33.557C145.648,32.695 145.739,31.555 145.817,30.289C148.748,30.216 153.506,30.335 158.112,31.475ZM151.884,43.226C141.745,43.226 133.502,51.34 133.502,61.349C133.502,71.359 141.745,79.473 151.884,79.473C162.022,79.473 170.265,71.359 170.265,61.349C170.265,51.34 162.022,43.226 151.884,43.226Z"/>
            </g>
        </g>
    </g>
</svg>
